<?xml version="1.0" encoding="UTF-8" standalone="no"?>
<!DOCTYPE svg PUBLIC "-//W3C//DTD SVG 1.1//EN" "http://www.w3.org/Graphics/SVG/1.1/DTD/svg11.dtd">
<svg width="100%" height="100%" viewBox="0 0 143 143" version="1.1" xmlns="http://www.w3.org/2000/svg" xmlns:xlink="http://www.w3.org/1999/xlink" xml:space="preserve" xmlns:serif="http://www.serif.com/" style="fill-rule:evenodd;clip-rule:evenodd;stroke-linejoin:round;stroke-miterlimit:2;">
    <g transform="matrix(1,0,0,1,-6030,-2837.28)">
        <g transform="matrix(3.7037,0,0,3.7037,4559.36,4500.1)">
            <g transform="matrix(0.776449,0,0,0.776449,397.072,-465.419)">
                <path d="M40.269,70.651L15.755,70.651C3.956,70.651 -0,66.483 -0,53.766L-0,30.451C-0,24.304 3.886,21.195 11.587,21.195C18.864,21.195 22.538,24.304 22.538,30.451L22.538,49.739L40.198,49.739C49.454,49.739 49.454,57.793 49.454,60.407C49.454,67.26 46.416,70.651 40.269,70.651ZM11.587,26.07C4.875,26.07 4.875,28.543 4.875,30.451L4.875,53.766C4.875,64.293 7.206,65.776 15.755,65.776L40.269,65.776C43.095,65.776 44.579,64.999 44.579,60.407C44.579,55.532 43.307,54.613 40.198,54.613L22.538,54.613C22.538,57.086 22.114,59.065 20.348,60.972C17.592,63.586 12.929,63.516 10.668,60.831C7.277,57.086 9.467,49.739 16.956,49.739L17.663,49.739L17.663,30.451C17.663,27.837 17.239,26.07 11.587,26.07ZM17.663,54.613L16.956,54.613C13.636,54.613 13.777,56.945 14.272,57.652C14.766,58.146 16.109,58.217 16.886,57.44C17.733,56.662 17.663,55.391 17.663,54.613Z" style="fill:url(#_Linear1);fill-rule:nonzero;"/>
            </g>
        </g>
    </g>
    <defs>
        <linearGradient id="_Linear1" x1="0" y1="0" x2="1" y2="0" gradientUnits="userSpaceOnUse" gradientTransform="matrix(44.5103,0,0,44.5103,-2.0917e-15,21.1954)"><stop offset="0" style="stop-color:rgb(183,248,219);stop-opacity:1"/><stop offset="1" style="stop-color:rgb(80,167,194);stop-opacity:1"/></linearGradient>
    </defs>
</svg>
