<?xml version="1.0" encoding="UTF-8" standalone="no"?>
<!DOCTYPE svg PUBLIC "-//W3C//DTD SVG 1.1//EN" "http://www.w3.org/Graphics/SVG/1.1/DTD/svg11.dtd">
<svg width="100%" height="100%" viewBox="0 0 577 143" version="1.1" xmlns="http://www.w3.org/2000/svg" xmlns:xlink="http://www.w3.org/1999/xlink" xml:space="preserve" xmlns:serif="http://www.serif.com/" style="fill-rule:evenodd;clip-rule:evenodd;stroke-linejoin:round;stroke-miterlimit:2;">
  <style>
        g path {
            fill: #fff;
        }
    </style>

    <g transform="matrix(1,0,0,1,-6030,-2627.69)">
        <g transform="matrix(1,0,0,1,5867.61,2306.46)">
            <g transform="matrix(66.6667,0,0,66.6667,255.681,385.857)">
                <path d="M0.15,-0C0.124,-0 0.105,-0.007 0.091,-0.021C0.078,-0.035 0.071,-0.054 0.071,-0.079L0.071,-0.628C0.071,-0.654 0.077,-0.674 0.091,-0.687C0.104,-0.7 0.123,-0.707 0.149,-0.707C0.174,-0.707 0.193,-0.7 0.206,-0.687C0.219,-0.674 0.226,-0.654 0.226,-0.628L0.226,-0.131L0.494,-0.131C0.515,-0.131 0.532,-0.125 0.543,-0.114C0.555,-0.103 0.561,-0.087 0.561,-0.066C0.561,-0.045 0.555,-0.029 0.543,-0.017C0.532,-0.006 0.515,-0 0.494,-0L0.15,-0Z" style="fill-rule:nonzero;"/>
            </g>
            <g transform="matrix(66.6667,0,0,66.6667,292.481,385.857)">
                <path d="M0.091,0.009C0.072,0.009 0.057,0.004 0.045,-0.004C0.033,-0.013 0.026,-0.024 0.023,-0.039C0.021,-0.054 0.023,-0.07 0.032,-0.088L0.288,-0.649C0.299,-0.672 0.311,-0.688 0.326,-0.698C0.341,-0.709 0.358,-0.714 0.377,-0.714C0.396,-0.714 0.413,-0.709 0.428,-0.698C0.443,-0.688 0.455,-0.672 0.465,-0.649L0.723,-0.088C0.732,-0.07 0.735,-0.053 0.732,-0.038C0.73,-0.024 0.723,-0.012 0.712,-0.004C0.7,0.005 0.686,0.009 0.668,0.009C0.645,0.009 0.628,0.003 0.616,-0.007C0.603,-0.018 0.592,-0.034 0.583,-0.057L0.523,-0.196L0.585,-0.153L0.168,-0.153L0.23,-0.196L0.171,-0.057C0.161,-0.034 0.15,-0.017 0.139,-0.007C0.128,0.003 0.112,0.009 0.091,0.009ZM0.375,-0.54L0.247,-0.235L0.22,-0.274L0.533,-0.274L0.506,-0.235L0.377,-0.54L0.375,-0.54Z" style="fill-rule:nonzero;"/>
            </g>
            <g transform="matrix(66.6667,0,0,66.6667,343.547,385.857)">
                <path d="M0.149,0.009C0.123,0.009 0.104,0.002 0.091,-0.012C0.077,-0.026 0.071,-0.046 0.071,-0.071L0.071,-0.626C0.071,-0.652 0.078,-0.671 0.091,-0.685C0.105,-0.698 0.124,-0.705 0.15,-0.705L0.393,-0.705C0.472,-0.705 0.532,-0.686 0.575,-0.648C0.618,-0.61 0.639,-0.557 0.639,-0.489C0.639,-0.445 0.629,-0.407 0.61,-0.375C0.591,-0.343 0.563,-0.318 0.526,-0.301C0.49,-0.284 0.445,-0.275 0.393,-0.275L0.401,-0.292L0.442,-0.292C0.47,-0.292 0.494,-0.285 0.515,-0.271C0.537,-0.258 0.555,-0.237 0.57,-0.209L0.632,-0.094C0.642,-0.077 0.646,-0.061 0.645,-0.045C0.644,-0.029 0.638,-0.016 0.627,-0.006C0.616,0.004 0.599,0.009 0.577,0.009C0.555,0.009 0.537,0.004 0.523,-0.005C0.51,-0.014 0.497,-0.028 0.487,-0.048L0.391,-0.225C0.381,-0.243 0.369,-0.256 0.354,-0.263C0.34,-0.269 0.322,-0.273 0.302,-0.273L0.226,-0.273L0.226,-0.071C0.226,-0.046 0.22,-0.026 0.207,-0.012C0.194,0.002 0.174,0.009 0.149,0.009ZM0.226,-0.385L0.365,-0.385C0.406,-0.385 0.437,-0.393 0.458,-0.41C0.479,-0.426 0.49,-0.451 0.49,-0.485C0.49,-0.518 0.479,-0.543 0.458,-0.559C0.437,-0.576 0.406,-0.584 0.365,-0.584L0.226,-0.584L0.226,-0.385Z" style="fill-rule:nonzero;"/>
            </g>
            <g transform="matrix(66.6667,0,0,66.6667,390.547,385.857)">
                <path d="M0.323,0.011C0.295,0.011 0.266,0.009 0.237,0.004C0.208,0 0.181,-0.006 0.154,-0.014C0.128,-0.022 0.105,-0.032 0.084,-0.044C0.069,-0.052 0.059,-0.062 0.053,-0.075C0.047,-0.088 0.045,-0.101 0.047,-0.115C0.049,-0.128 0.054,-0.14 0.062,-0.15C0.07,-0.161 0.08,-0.167 0.093,-0.171C0.106,-0.174 0.121,-0.171 0.137,-0.163C0.164,-0.148 0.194,-0.137 0.226,-0.129C0.259,-0.122 0.291,-0.118 0.323,-0.118C0.371,-0.118 0.406,-0.126 0.427,-0.141C0.448,-0.155 0.458,-0.174 0.458,-0.197C0.458,-0.216 0.451,-0.232 0.436,-0.243C0.421,-0.254 0.396,-0.264 0.359,-0.272L0.246,-0.296C0.182,-0.309 0.135,-0.332 0.104,-0.364C0.073,-0.397 0.057,-0.439 0.057,-0.492C0.057,-0.525 0.064,-0.556 0.078,-0.583C0.092,-0.611 0.111,-0.634 0.137,-0.654C0.162,-0.674 0.192,-0.689 0.227,-0.7C0.262,-0.71 0.301,-0.716 0.343,-0.716C0.381,-0.716 0.417,-0.711 0.453,-0.702C0.489,-0.693 0.521,-0.68 0.548,-0.663C0.561,-0.655 0.57,-0.645 0.575,-0.633C0.58,-0.62 0.582,-0.608 0.58,-0.595C0.579,-0.583 0.574,-0.572 0.566,-0.563C0.557,-0.553 0.547,-0.547 0.534,-0.545C0.521,-0.543 0.506,-0.545 0.489,-0.554C0.466,-0.565 0.443,-0.573 0.418,-0.579C0.393,-0.584 0.368,-0.587 0.342,-0.587C0.314,-0.587 0.29,-0.583 0.271,-0.576C0.251,-0.568 0.236,-0.558 0.226,-0.545C0.215,-0.532 0.21,-0.516 0.21,-0.499C0.21,-0.479 0.217,-0.464 0.231,-0.452C0.245,-0.44 0.269,-0.43 0.304,-0.423L0.417,-0.399C0.482,-0.385 0.531,-0.362 0.563,-0.331C0.595,-0.3 0.611,-0.26 0.611,-0.209C0.611,-0.176 0.604,-0.146 0.591,-0.119C0.577,-0.092 0.558,-0.069 0.533,-0.049C0.508,-0.03 0.477,-0.015 0.442,-0.005C0.407,0.005 0.367,0.011 0.323,0.011Z" style="fill-rule:nonzero;"/>
            </g>
            <g transform="matrix(66.6667,0,0,66.6667,453.614,385.857)">
                <path d="M0.149,0.009C0.123,0.009 0.104,0.002 0.091,-0.012C0.077,-0.026 0.071,-0.046 0.071,-0.071L0.071,-0.626C0.071,-0.652 0.078,-0.671 0.091,-0.685C0.105,-0.698 0.124,-0.705 0.15,-0.705L0.393,-0.705C0.472,-0.705 0.532,-0.686 0.575,-0.648C0.618,-0.61 0.639,-0.557 0.639,-0.489C0.639,-0.445 0.629,-0.407 0.61,-0.375C0.591,-0.343 0.563,-0.318 0.526,-0.301C0.49,-0.284 0.445,-0.275 0.393,-0.275L0.401,-0.292L0.442,-0.292C0.47,-0.292 0.494,-0.285 0.515,-0.271C0.537,-0.258 0.555,-0.237 0.57,-0.209L0.632,-0.094C0.642,-0.077 0.646,-0.061 0.645,-0.045C0.644,-0.029 0.638,-0.016 0.627,-0.006C0.616,0.004 0.599,0.009 0.577,0.009C0.555,0.009 0.537,0.004 0.523,-0.005C0.51,-0.014 0.497,-0.028 0.487,-0.048L0.391,-0.225C0.381,-0.243 0.369,-0.256 0.354,-0.263C0.34,-0.269 0.322,-0.273 0.302,-0.273L0.226,-0.273L0.226,-0.071C0.226,-0.046 0.22,-0.026 0.207,-0.012C0.194,0.002 0.174,0.009 0.149,0.009ZM0.226,-0.385L0.365,-0.385C0.406,-0.385 0.437,-0.393 0.458,-0.41C0.479,-0.426 0.49,-0.451 0.49,-0.485C0.49,-0.518 0.479,-0.543 0.458,-0.559C0.437,-0.576 0.406,-0.584 0.365,-0.584L0.226,-0.584L0.226,-0.385Z" style="fill-rule:nonzero;"/>
            </g>
            <g transform="matrix(66.6667,0,0,66.6667,500.547,385.857)">
                <path d="M0.149,0.009C0.123,0.009 0.104,0.002 0.091,-0.012C0.077,-0.026 0.071,-0.046 0.071,-0.071L0.071,-0.634C0.071,-0.66 0.077,-0.679 0.091,-0.693C0.104,-0.707 0.123,-0.714 0.149,-0.714C0.174,-0.714 0.193,-0.707 0.206,-0.693C0.219,-0.679 0.226,-0.66 0.226,-0.634L0.226,-0.071C0.226,-0.046 0.22,-0.026 0.207,-0.012C0.194,0.002 0.174,0.009 0.149,0.009Z" style="fill-rule:nonzero;"/>
            </g>
            <g transform="matrix(66.6667,0,0,66.6667,519.481,385.857)">
                <path d="M0.413,0.011C0.337,0.011 0.272,-0.004 0.218,-0.034C0.164,-0.064 0.122,-0.106 0.093,-0.161C0.064,-0.215 0.05,-0.279 0.05,-0.353C0.05,-0.408 0.058,-0.458 0.075,-0.502C0.091,-0.547 0.115,-0.585 0.146,-0.617C0.177,-0.648 0.215,-0.673 0.26,-0.69C0.305,-0.707 0.356,-0.716 0.413,-0.716C0.446,-0.716 0.48,-0.711 0.514,-0.703C0.549,-0.695 0.579,-0.683 0.604,-0.668C0.621,-0.658 0.632,-0.647 0.638,-0.633C0.644,-0.619 0.646,-0.605 0.643,-0.591C0.641,-0.577 0.635,-0.565 0.626,-0.555C0.617,-0.545 0.606,-0.538 0.593,-0.536C0.579,-0.533 0.565,-0.536 0.548,-0.545C0.528,-0.557 0.507,-0.565 0.485,-0.571C0.463,-0.576 0.441,-0.579 0.418,-0.579C0.373,-0.579 0.336,-0.57 0.306,-0.552C0.275,-0.535 0.253,-0.509 0.237,-0.476C0.222,-0.443 0.214,-0.402 0.214,-0.353C0.214,-0.305 0.222,-0.264 0.237,-0.23C0.253,-0.196 0.275,-0.17 0.306,-0.153C0.336,-0.135 0.373,-0.126 0.418,-0.126C0.439,-0.126 0.461,-0.129 0.484,-0.134C0.506,-0.139 0.528,-0.148 0.548,-0.159C0.565,-0.168 0.581,-0.171 0.594,-0.169C0.608,-0.166 0.619,-0.16 0.628,-0.15C0.637,-0.141 0.643,-0.129 0.645,-0.116C0.648,-0.103 0.647,-0.089 0.641,-0.076C0.636,-0.062 0.626,-0.051 0.611,-0.042C0.586,-0.026 0.556,-0.013 0.52,-0.003C0.484,0.006 0.448,0.011 0.413,0.011Z" style="fill-rule:nonzero;"/>
            </g>
            <g transform="matrix(66.6667,0,0,66.6667,567.281,385.857)">
                <path d="M0.149,0.009C0.123,0.009 0.104,0.002 0.091,-0.012C0.077,-0.026 0.071,-0.046 0.071,-0.071L0.071,-0.635C0.071,-0.661 0.077,-0.68 0.091,-0.694C0.104,-0.707 0.123,-0.714 0.149,-0.714C0.174,-0.714 0.193,-0.707 0.206,-0.694C0.219,-0.68 0.226,-0.661 0.226,-0.635L0.226,-0.398L0.228,-0.398L0.494,-0.676C0.505,-0.688 0.517,-0.697 0.53,-0.704C0.542,-0.71 0.556,-0.713 0.572,-0.713C0.595,-0.713 0.612,-0.707 0.622,-0.695C0.633,-0.683 0.637,-0.669 0.636,-0.653C0.635,-0.637 0.627,-0.622 0.614,-0.608L0.347,-0.335L0.348,-0.402L0.628,-0.103C0.643,-0.087 0.651,-0.07 0.652,-0.052C0.652,-0.035 0.646,-0.02 0.635,-0.009C0.623,0.003 0.606,0.009 0.583,0.009C0.564,0.009 0.549,0.005 0.537,-0.003C0.525,-0.011 0.512,-0.023 0.498,-0.038L0.228,-0.322L0.226,-0.322L0.226,-0.071C0.226,-0.046 0.22,-0.026 0.207,-0.012C0.194,0.002 0.174,0.009 0.149,0.009Z" style="fill-rule:nonzero;"/>
            </g>
            <g transform="matrix(66.6667,0,0,66.6667,609.947,385.857)">
                <path d="M0.152,-0C0.126,-0 0.106,-0.007 0.092,-0.021C0.078,-0.035 0.071,-0.055 0.071,-0.081L0.071,-0.624C0.071,-0.65 0.078,-0.67 0.092,-0.684C0.106,-0.698 0.126,-0.705 0.152,-0.705L0.501,-0.705C0.521,-0.705 0.536,-0.7 0.547,-0.689C0.557,-0.679 0.562,-0.664 0.562,-0.645C0.562,-0.625 0.557,-0.61 0.547,-0.599C0.536,-0.589 0.521,-0.584 0.501,-0.584L0.219,-0.584L0.219,-0.419L0.478,-0.419C0.499,-0.419 0.514,-0.414 0.525,-0.403C0.535,-0.393 0.54,-0.378 0.54,-0.358C0.54,-0.338 0.535,-0.323 0.525,-0.313C0.514,-0.302 0.499,-0.297 0.478,-0.297L0.219,-0.297L0.219,-0.121L0.501,-0.121C0.521,-0.121 0.536,-0.116 0.547,-0.106C0.557,-0.096 0.562,-0.081 0.562,-0.061C0.562,-0.041 0.557,-0.026 0.547,-0.016C0.536,-0.005 0.521,-0 0.501,-0L0.152,-0Z" style="fill-rule:nonzero;"/>
            </g>
            <g transform="matrix(66.6667,0,0,66.6667,651.281,385.857)">
                <path d="M0.149,0.009C0.123,0.009 0.104,0.002 0.091,-0.012C0.077,-0.026 0.071,-0.046 0.071,-0.071L0.071,-0.626C0.071,-0.652 0.078,-0.671 0.091,-0.685C0.105,-0.698 0.124,-0.705 0.15,-0.705L0.393,-0.705C0.472,-0.705 0.532,-0.686 0.575,-0.648C0.618,-0.61 0.639,-0.557 0.639,-0.489C0.639,-0.445 0.629,-0.407 0.61,-0.375C0.591,-0.343 0.563,-0.318 0.526,-0.301C0.49,-0.284 0.445,-0.275 0.393,-0.275L0.401,-0.292L0.442,-0.292C0.47,-0.292 0.494,-0.285 0.515,-0.271C0.537,-0.258 0.555,-0.237 0.57,-0.209L0.632,-0.094C0.642,-0.077 0.646,-0.061 0.645,-0.045C0.644,-0.029 0.638,-0.016 0.627,-0.006C0.616,0.004 0.599,0.009 0.577,0.009C0.555,0.009 0.537,0.004 0.523,-0.005C0.51,-0.014 0.497,-0.028 0.487,-0.048L0.391,-0.225C0.381,-0.243 0.369,-0.256 0.354,-0.263C0.34,-0.269 0.322,-0.273 0.302,-0.273L0.226,-0.273L0.226,-0.071C0.226,-0.046 0.22,-0.026 0.207,-0.012C0.194,0.002 0.174,0.009 0.149,0.009ZM0.226,-0.385L0.365,-0.385C0.406,-0.385 0.437,-0.393 0.458,-0.41C0.479,-0.426 0.49,-0.451 0.49,-0.485C0.49,-0.518 0.479,-0.543 0.458,-0.559C0.437,-0.576 0.406,-0.584 0.365,-0.584L0.226,-0.584L0.226,-0.385Z" style="fill-rule:nonzero;"/>
            </g>
            <g transform="matrix(66.6667,0,0,66.6667,696.881,385.857)">
                <path d="M0.317,0.009C0.292,0.009 0.272,0.002 0.259,-0.012C0.246,-0.026 0.239,-0.046 0.239,-0.071L0.239,-0.577L0.062,-0.577C0.041,-0.577 0.025,-0.583 0.014,-0.594C0.003,-0.605 -0.003,-0.621 -0.003,-0.641C-0.003,-0.662 0.003,-0.678 0.014,-0.689C0.025,-0.7 0.041,-0.705 0.062,-0.705L0.571,-0.705C0.592,-0.705 0.608,-0.7 0.619,-0.689C0.63,-0.678 0.636,-0.662 0.636,-0.641C0.636,-0.621 0.63,-0.605 0.619,-0.594C0.608,-0.583 0.592,-0.577 0.571,-0.577L0.394,-0.577L0.394,-0.071C0.394,-0.046 0.388,-0.026 0.375,-0.012C0.362,0.002 0.342,0.009 0.317,0.009Z" style="fill-rule:nonzero;"/>
            </g>
        </g>
        <g transform="matrix(1,0,0,1,5938.53,2368.78)">
            <g transform="matrix(41.6667,0,0,41.6667,255.681,385.857)">
                <path d="M0.308,0.006C0.299,0.006 0.291,0.004 0.286,-0.001C0.28,-0.006 0.275,-0.014 0.271,-0.024L0.045,-0.674C0.041,-0.685 0.042,-0.693 0.047,-0.701C0.053,-0.708 0.061,-0.711 0.072,-0.711C0.081,-0.711 0.088,-0.709 0.093,-0.705C0.098,-0.701 0.102,-0.694 0.106,-0.684L0.325,-0.044L0.293,-0.044L0.514,-0.681C0.518,-0.691 0.523,-0.699 0.528,-0.704C0.533,-0.709 0.54,-0.711 0.549,-0.711C0.557,-0.711 0.564,-0.709 0.569,-0.704C0.574,-0.699 0.579,-0.691 0.582,-0.681L0.802,-0.044L0.772,-0.044L0.993,-0.684C0.996,-0.693 1,-0.7 1.006,-0.705C1.011,-0.709 1.018,-0.711 1.027,-0.711C1.038,-0.711 1.045,-0.708 1.05,-0.701C1.055,-0.694 1.056,-0.685 1.051,-0.674L0.825,-0.024C0.821,-0.014 0.817,-0.006 0.811,-0.001C0.806,0.004 0.798,0.006 0.788,0.006C0.778,0.006 0.771,0.004 0.765,-0.001C0.76,-0.006 0.755,-0.014 0.751,-0.024L0.538,-0.641L0.558,-0.641L0.344,-0.024C0.34,-0.014 0.336,-0.006 0.33,-0.001C0.325,0.004 0.318,0.006 0.308,0.006Z" style="fill-rule:nonzero;"/>
            </g>
            <g transform="matrix(41.6667,0,0,41.6667,301.139,385.857)">
                <path d="M0.127,-0C0.115,-0 0.107,-0.003 0.101,-0.009C0.095,-0.015 0.092,-0.024 0.092,-0.035L0.092,-0.67C0.092,-0.681 0.095,-0.69 0.101,-0.696C0.107,-0.702 0.115,-0.705 0.127,-0.705L0.504,-0.705C0.513,-0.705 0.52,-0.703 0.525,-0.698C0.53,-0.694 0.532,-0.687 0.532,-0.679C0.532,-0.67 0.53,-0.663 0.525,-0.659C0.52,-0.654 0.513,-0.652 0.504,-0.652L0.152,-0.652L0.152,-0.384L0.484,-0.384C0.493,-0.384 0.5,-0.382 0.505,-0.377C0.51,-0.373 0.512,-0.366 0.512,-0.358C0.512,-0.349 0.51,-0.342 0.505,-0.338C0.5,-0.333 0.493,-0.331 0.484,-0.331L0.152,-0.331L0.152,-0.053L0.504,-0.053C0.513,-0.053 0.52,-0.051 0.525,-0.047C0.53,-0.042 0.532,-0.036 0.532,-0.027C0.532,-0.018 0.53,-0.011 0.525,-0.007C0.52,-0.002 0.513,-0 0.504,-0L0.127,-0Z" style="fill-rule:nonzero;"/>
            </g>
            <g transform="matrix(41.6667,0,0,41.6667,324.889,385.857)">
                <path d="M0.127,-0C0.115,-0 0.107,-0.003 0.101,-0.009C0.095,-0.015 0.092,-0.024 0.092,-0.035L0.092,-0.67C0.092,-0.681 0.095,-0.69 0.101,-0.696C0.107,-0.702 0.115,-0.705 0.127,-0.705L0.361,-0.705C0.409,-0.705 0.45,-0.698 0.484,-0.683C0.518,-0.669 0.543,-0.648 0.561,-0.621C0.579,-0.593 0.588,-0.56 0.588,-0.52C0.588,-0.476 0.575,-0.439 0.549,-0.41C0.522,-0.381 0.487,-0.361 0.442,-0.352L0.442,-0.366C0.492,-0.361 0.532,-0.343 0.561,-0.313C0.59,-0.283 0.604,-0.242 0.604,-0.192C0.604,-0.13 0.584,-0.082 0.544,-0.049C0.504,-0.016 0.447,-0 0.374,-0L0.127,-0ZM0.152,-0.052L0.369,-0.052C0.427,-0.052 0.47,-0.064 0.499,-0.086C0.528,-0.109 0.542,-0.144 0.542,-0.191C0.542,-0.239 0.528,-0.274 0.499,-0.297C0.47,-0.319 0.427,-0.331 0.369,-0.331L0.152,-0.331L0.152,-0.052ZM0.152,-0.383L0.354,-0.383C0.41,-0.383 0.453,-0.394 0.482,-0.418C0.511,-0.441 0.526,-0.474 0.526,-0.518C0.526,-0.562 0.511,-0.595 0.482,-0.618C0.453,-0.641 0.41,-0.653 0.354,-0.653L0.152,-0.653L0.152,-0.383Z" style="fill-rule:nonzero;"/>
            </g>
            <g transform="matrix(41.6667,0,0,41.6667,362.889,385.857)">
                <path d="M0.127,-0C0.115,-0 0.107,-0.003 0.101,-0.009C0.095,-0.015 0.092,-0.024 0.092,-0.035L0.092,-0.67C0.092,-0.681 0.095,-0.69 0.101,-0.696C0.107,-0.702 0.115,-0.705 0.127,-0.705L0.319,-0.705C0.431,-0.705 0.518,-0.675 0.579,-0.615C0.639,-0.555 0.67,-0.468 0.67,-0.353C0.67,-0.296 0.662,-0.245 0.646,-0.201C0.631,-0.157 0.608,-0.121 0.578,-0.091C0.548,-0.061 0.512,-0.039 0.468,-0.023C0.425,-0.008 0.375,-0 0.319,-0L0.127,-0ZM0.153,-0.054L0.314,-0.054C0.363,-0.054 0.405,-0.061 0.441,-0.073C0.477,-0.086 0.508,-0.105 0.532,-0.129C0.556,-0.154 0.574,-0.185 0.586,-0.223C0.598,-0.26 0.604,-0.303 0.604,-0.353C0.604,-0.452 0.58,-0.527 0.532,-0.576C0.483,-0.626 0.411,-0.651 0.314,-0.651L0.153,-0.651L0.153,-0.054Z" style="fill-rule:nonzero;"/>
            </g>
            <g transform="matrix(41.6667,0,0,41.6667,393.097,385.857)">
                <path d="M0.127,-0C0.115,-0 0.107,-0.003 0.101,-0.009C0.095,-0.015 0.092,-0.024 0.092,-0.035L0.092,-0.67C0.092,-0.681 0.095,-0.69 0.101,-0.696C0.107,-0.702 0.115,-0.705 0.127,-0.705L0.504,-0.705C0.513,-0.705 0.52,-0.703 0.525,-0.698C0.53,-0.694 0.532,-0.687 0.532,-0.679C0.532,-0.67 0.53,-0.663 0.525,-0.659C0.52,-0.654 0.513,-0.652 0.504,-0.652L0.152,-0.652L0.152,-0.384L0.484,-0.384C0.493,-0.384 0.5,-0.382 0.505,-0.377C0.51,-0.373 0.512,-0.366 0.512,-0.358C0.512,-0.349 0.51,-0.342 0.505,-0.338C0.5,-0.333 0.493,-0.331 0.484,-0.331L0.152,-0.331L0.152,-0.053L0.504,-0.053C0.513,-0.053 0.52,-0.051 0.525,-0.047C0.53,-0.042 0.532,-0.036 0.532,-0.027C0.532,-0.018 0.53,-0.011 0.525,-0.007C0.52,-0.002 0.513,-0 0.504,-0L0.127,-0Z" style="fill-rule:nonzero;"/>
            </g>
            <g transform="matrix(41.6667,0,0,41.6667,416.431,385.857)">
                <path d="M0.339,0.006C0.329,0.006 0.321,0.004 0.315,-0.001C0.309,-0.006 0.304,-0.013 0.299,-0.023L0.018,-0.672C0.015,-0.68 0.014,-0.687 0.016,-0.693C0.017,-0.699 0.021,-0.703 0.026,-0.707C0.031,-0.71 0.037,-0.711 0.044,-0.711C0.053,-0.711 0.06,-0.709 0.065,-0.705C0.07,-0.701 0.074,-0.695 0.078,-0.687L0.354,-0.045L0.326,-0.045L0.602,-0.687C0.605,-0.695 0.61,-0.701 0.615,-0.705C0.62,-0.709 0.627,-0.711 0.636,-0.711C0.643,-0.711 0.649,-0.71 0.654,-0.706C0.658,-0.703 0.661,-0.698 0.662,-0.692C0.663,-0.687 0.662,-0.68 0.659,-0.672L0.378,-0.023C0.374,-0.013 0.369,-0.006 0.363,-0.001C0.357,0.004 0.349,0.006 0.339,0.006Z" style="fill-rule:nonzero;"/>
            </g>
            <g transform="matrix(41.6667,0,0,41.6667,444.222,385.857)">
                <path d="M0.127,-0C0.115,-0 0.107,-0.003 0.101,-0.009C0.095,-0.015 0.092,-0.024 0.092,-0.035L0.092,-0.67C0.092,-0.681 0.095,-0.69 0.101,-0.696C0.107,-0.702 0.115,-0.705 0.127,-0.705L0.504,-0.705C0.513,-0.705 0.52,-0.703 0.525,-0.698C0.53,-0.694 0.532,-0.687 0.532,-0.679C0.532,-0.67 0.53,-0.663 0.525,-0.659C0.52,-0.654 0.513,-0.652 0.504,-0.652L0.152,-0.652L0.152,-0.384L0.484,-0.384C0.493,-0.384 0.5,-0.382 0.505,-0.377C0.51,-0.373 0.512,-0.366 0.512,-0.358C0.512,-0.349 0.51,-0.342 0.505,-0.338C0.5,-0.333 0.493,-0.331 0.484,-0.331L0.152,-0.331L0.152,-0.053L0.504,-0.053C0.513,-0.053 0.52,-0.051 0.525,-0.047C0.53,-0.042 0.532,-0.036 0.532,-0.027C0.532,-0.018 0.53,-0.011 0.525,-0.007C0.52,-0.002 0.513,-0 0.504,-0L0.127,-0Z" style="fill-rule:nonzero;"/>
            </g>
            <g transform="matrix(41.6667,0,0,41.6667,467.972,385.857)">
                <path d="M0.124,-0C0.114,-0 0.106,-0.003 0.1,-0.009C0.094,-0.014 0.092,-0.022 0.092,-0.032L0.092,-0.678C0.092,-0.689 0.094,-0.697 0.1,-0.702C0.105,-0.708 0.113,-0.71 0.123,-0.71C0.132,-0.71 0.14,-0.708 0.145,-0.702C0.151,-0.697 0.153,-0.689 0.153,-0.678L0.153,-0.055L0.497,-0.055C0.507,-0.055 0.514,-0.053 0.52,-0.048C0.525,-0.043 0.527,-0.037 0.527,-0.028C0.527,-0.019 0.525,-0.012 0.52,-0.007C0.514,-0.002 0.507,-0 0.497,-0L0.124,-0Z" style="fill-rule:nonzero;"/>
            </g>
            <g transform="matrix(41.6667,0,0,41.6667,488.472,385.857)">
                <path d="M0.379,0.008C0.315,0.008 0.259,-0.006 0.212,-0.036C0.165,-0.065 0.128,-0.107 0.103,-0.161C0.077,-0.215 0.064,-0.279 0.064,-0.353C0.064,-0.409 0.071,-0.459 0.086,-0.503C0.1,-0.548 0.121,-0.585 0.148,-0.617C0.176,-0.648 0.209,-0.672 0.248,-0.688C0.287,-0.705 0.33,-0.713 0.379,-0.713C0.444,-0.713 0.5,-0.699 0.548,-0.67C0.595,-0.641 0.631,-0.599 0.657,-0.545C0.682,-0.492 0.695,-0.428 0.695,-0.354C0.695,-0.298 0.688,-0.248 0.673,-0.203C0.658,-0.159 0.637,-0.12 0.61,-0.089C0.582,-0.058 0.549,-0.033 0.511,-0.017C0.472,0 0.428,0.008 0.379,0.008ZM0.379,-0.048C0.432,-0.048 0.477,-0.06 0.515,-0.084C0.552,-0.108 0.58,-0.143 0.6,-0.188C0.62,-0.234 0.63,-0.289 0.63,-0.353C0.63,-0.449 0.608,-0.524 0.565,-0.577C0.521,-0.63 0.459,-0.657 0.379,-0.657C0.327,-0.657 0.282,-0.645 0.244,-0.621C0.207,-0.597 0.179,-0.563 0.159,-0.517C0.139,-0.472 0.129,-0.417 0.129,-0.353C0.129,-0.257 0.151,-0.182 0.195,-0.129C0.239,-0.075 0.3,-0.048 0.379,-0.048Z" style="fill-rule:nonzero;"/>
            </g>
            <g transform="matrix(41.6667,0,0,41.6667,519.764,385.857)">
                <path d="M0.123,0.006C0.113,0.006 0.105,0.004 0.1,-0.002C0.094,-0.008 0.092,-0.016 0.092,-0.026L0.092,-0.673C0.092,-0.684 0.094,-0.692 0.1,-0.697C0.106,-0.702 0.114,-0.705 0.124,-0.705L0.358,-0.705C0.433,-0.705 0.49,-0.687 0.53,-0.651C0.57,-0.615 0.59,-0.564 0.59,-0.497C0.59,-0.431 0.57,-0.38 0.53,-0.344C0.49,-0.308 0.433,-0.289 0.358,-0.289L0.153,-0.289L0.153,-0.026C0.153,-0.016 0.151,-0.008 0.146,-0.002C0.141,0.004 0.133,0.006 0.123,0.006ZM0.153,-0.343L0.353,-0.343C0.411,-0.343 0.455,-0.356 0.484,-0.382C0.513,-0.408 0.528,-0.447 0.528,-0.497C0.528,-0.548 0.513,-0.586 0.484,-0.613C0.455,-0.639 0.411,-0.652 0.353,-0.652L0.153,-0.652L0.153,-0.343Z" style="fill-rule:nonzero;"/>
            </g>
            <g transform="matrix(41.6667,0,0,41.6667,545.431,385.857)">
                <path d="M0.122,0.006C0.113,0.006 0.106,0.004 0.101,-0.002C0.096,-0.007 0.094,-0.015 0.094,-0.024L0.094,-0.681C0.094,-0.691 0.096,-0.698 0.101,-0.704C0.106,-0.709 0.113,-0.711 0.121,-0.711C0.13,-0.711 0.136,-0.71 0.141,-0.706C0.146,-0.703 0.15,-0.697 0.154,-0.69L0.44,-0.147L0.412,-0.147L0.696,-0.69C0.701,-0.697 0.705,-0.703 0.71,-0.706C0.714,-0.71 0.72,-0.711 0.729,-0.711C0.737,-0.711 0.744,-0.709 0.749,-0.704C0.754,-0.698 0.756,-0.691 0.756,-0.681L0.756,-0.024C0.756,-0.015 0.754,-0.007 0.749,-0.002C0.744,0.004 0.737,0.006 0.728,0.006C0.719,0.006 0.712,0.004 0.707,-0.002C0.702,-0.007 0.699,-0.015 0.699,-0.024L0.699,-0.631L0.723,-0.631L0.455,-0.123C0.452,-0.116 0.448,-0.111 0.444,-0.108C0.44,-0.104 0.434,-0.103 0.427,-0.103C0.419,-0.103 0.413,-0.105 0.409,-0.108C0.404,-0.112 0.4,-0.117 0.397,-0.123L0.126,-0.632L0.15,-0.632L0.15,-0.024C0.15,-0.015 0.148,-0.007 0.143,-0.002C0.138,0.004 0.131,0.006 0.122,0.006Z" style="fill-rule:nonzero;"/>
            </g>
            <g transform="matrix(41.6667,0,0,41.6667,580.597,385.857)">
                <path d="M0.127,-0C0.115,-0 0.107,-0.003 0.101,-0.009C0.095,-0.015 0.092,-0.024 0.092,-0.035L0.092,-0.67C0.092,-0.681 0.095,-0.69 0.101,-0.696C0.107,-0.702 0.115,-0.705 0.127,-0.705L0.504,-0.705C0.513,-0.705 0.52,-0.703 0.525,-0.698C0.53,-0.694 0.532,-0.687 0.532,-0.679C0.532,-0.67 0.53,-0.663 0.525,-0.659C0.52,-0.654 0.513,-0.652 0.504,-0.652L0.152,-0.652L0.152,-0.384L0.484,-0.384C0.493,-0.384 0.5,-0.382 0.505,-0.377C0.51,-0.373 0.512,-0.366 0.512,-0.358C0.512,-0.349 0.51,-0.342 0.505,-0.338C0.5,-0.333 0.493,-0.331 0.484,-0.331L0.152,-0.331L0.152,-0.053L0.504,-0.053C0.513,-0.053 0.52,-0.051 0.525,-0.047C0.53,-0.042 0.532,-0.036 0.532,-0.027C0.532,-0.018 0.53,-0.011 0.525,-0.007C0.52,-0.002 0.513,-0 0.504,-0L0.127,-0Z" style="fill-rule:nonzero;"/>
            </g>
            <g transform="matrix(41.6667,0,0,41.6667,604.347,385.857)">
                <path d="M0.121,0.006C0.112,0.006 0.105,0.004 0.099,-0.002C0.094,-0.007 0.092,-0.015 0.092,-0.025L0.092,-0.679C0.092,-0.689 0.094,-0.697 0.099,-0.703C0.104,-0.709 0.11,-0.711 0.118,-0.711C0.126,-0.711 0.133,-0.71 0.137,-0.707C0.141,-0.704 0.145,-0.699 0.15,-0.692L0.61,-0.073L0.587,-0.073L0.587,-0.681C0.587,-0.691 0.589,-0.698 0.594,-0.704C0.6,-0.709 0.607,-0.711 0.616,-0.711C0.625,-0.711 0.632,-0.709 0.637,-0.704C0.642,-0.698 0.644,-0.691 0.644,-0.681L0.644,-0.025C0.644,-0.015 0.642,-0.007 0.637,-0.002C0.633,0.004 0.627,0.006 0.619,0.006C0.612,0.006 0.606,0.005 0.601,0.002C0.596,-0.001 0.591,-0.006 0.586,-0.013L0.127,-0.632L0.149,-0.632L0.149,-0.025C0.149,-0.015 0.147,-0.007 0.142,-0.002C0.137,0.004 0.13,0.006 0.121,0.006Z" style="fill-rule:nonzero;"/>
            </g>
            <g transform="matrix(41.6667,0,0,41.6667,634.847,385.857)">
                <path d="M0.297,0.006C0.287,0.006 0.28,0.004 0.274,-0.002C0.269,-0.008 0.266,-0.016 0.266,-0.026L0.266,-0.65L0.027,-0.65C0.017,-0.65 0.01,-0.653 0.005,-0.658C-0,-0.663 -0.003,-0.67 -0.003,-0.678C-0.003,-0.687 -0,-0.693 0.005,-0.698C0.01,-0.703 0.017,-0.705 0.027,-0.705L0.568,-0.705C0.577,-0.705 0.585,-0.703 0.59,-0.698C0.595,-0.693 0.597,-0.687 0.597,-0.678C0.597,-0.669 0.595,-0.662 0.59,-0.658C0.585,-0.653 0.577,-0.65 0.568,-0.65L0.328,-0.65L0.328,-0.026C0.328,-0.016 0.325,-0.008 0.32,-0.002C0.315,0.004 0.308,0.006 0.297,0.006Z" style="fill-rule:nonzero;"/>
            </g>
        </g>
        <g transform="matrix(3.7037,0,0,3.7037,4559.36,4500.1)">
            <g transform="matrix(0.776449,0,0,0.776449,397.072,-522.009)">
                <path d="M40.269,70.651L15.755,70.651C3.956,70.651 -0,66.483 -0,53.766L-0,30.451C-0,24.304 3.886,21.195 11.587,21.195C18.864,21.195 22.538,24.304 22.538,30.451L22.538,49.739L40.198,49.739C49.454,49.739 49.454,57.793 49.454,60.407C49.454,67.26 46.416,70.651 40.269,70.651ZM11.587,26.07C4.875,26.07 4.875,28.543 4.875,30.451L4.875,53.766C4.875,64.293 7.206,65.776 15.755,65.776L40.269,65.776C43.095,65.776 44.579,64.999 44.579,60.407C44.579,55.532 43.307,54.613 40.198,54.613L22.538,54.613C22.538,57.086 22.114,59.065 20.348,60.972C17.592,63.586 12.929,63.516 10.668,60.831C7.277,57.086 9.467,49.739 16.956,49.739L17.663,49.739L17.663,30.451C17.663,27.837 17.239,26.07 11.587,26.07ZM17.663,54.613L16.956,54.613C13.636,54.613 13.777,56.945 14.272,57.652C14.766,58.146 16.109,58.217 16.886,57.44C17.733,56.662 17.663,55.391 17.663,54.613Z" style="fill:url(#_Linear1);fill-rule:nonzero;"/>
            </g>
        </g>
    </g>
    <defs>
        <linearGradient id="_Linear1" x1="0" y1="0" x2="1" y2="0" gradientUnits="userSpaceOnUse" gradientTransform="matrix(44.5103,0,0,44.5103,-2.0917e-15,21.1954)"><stop offset="0" style="stop-color:rgb(183,248,219);stop-opacity:1"/><stop offset="1" style="stop-color:rgb(80,167,194);stop-opacity:1"/></linearGradient>
    </defs>
</svg>
